<svg xmlns="http://www.w3.org/2000/svg" xmlns:xlink="http://www.w3.org/1999/xlink" viewBox="0 0 990.45 296.47"><defs><style>.cls-1{isolation:isolate;}.cls-2{fill:#0c0c0c;}.cls-3{fill:url(#radial-gradient);}.cls-4{fill:#414242;}.cls-10,.cls-11,.cls-12,.cls-13,.cls-14,.cls-15,.cls-17,.cls-18,.cls-19,.cls-22,.cls-23,.cls-25,.cls-26,.cls-4,.cls-5,.cls-6,.cls-7,.cls-8,.cls-9{fill-rule:evenodd;}.cls-5{fill:#60bb55;}.cls-10,.cls-11,.cls-15,.cls-16,.cls-17,.cls-20,.cls-21,.cls-25,.cls-6,.cls-8{mix-blend-mode:multiply;}.cls-6{fill:url(#linear-gradient);}.cls-7{fill:#84c468;}.cls-8{fill:url(#linear-gradient-2);}.cls-9{fill:#4f9d4d;}.cls-10{fill:url(#linear-gradient-3);}.cls-11,.cls-17{opacity:0.7;}.cls-11{fill:url(#linear-gradient-4);}.cls-12{fill:#fff;}.cls-13{fill:url(#linear-gradient-5);}.cls-14{fill:#303030;}.cls-15{fill:url(#linear-gradient-6);}.cls-16,.cls-21{opacity:0.5;}.cls-16{fill:url(#linear-gradient-7);}.cls-17{fill:url(#linear-gradient-8);}.cls-18{fill:url(#linear-gradient-9);}.cls-19{fill:url(#linear-gradient-10);}.cls-20,.cls-21{fill:url(#linear-gradient-11);}.cls-22,.cls-23{opacity:0.8;}.cls-22{fill:url(#linear-gradient-13);}.cls-23{fill:url(#linear-gradient-14);}.cls-24{fill:url(#linear-gradient-15);}.cls-25{opacity:0.9;fill:url(#linear-gradient-16);}.cls-26{fill:url(#linear-gradient-17);}</style><radialGradient id="radial-gradient" cx="217.01" cy="252.41" r="98.36" gradientTransform="translate(-174.23 194.26) scale(1.5 0.28)" gradientUnits="userSpaceOnUse"><stop offset="0.12" stop-color="#515252" stop-opacity="0.7"/><stop offset="0.97" stop-color="#515252" stop-opacity="0"/></radialGradient><linearGradient id="linear-gradient" x1="180.69" y1="99.32" x2="54.23" y2="331.94" gradientUnits="userSpaceOnUse"><stop offset="0" stop-color="#519b4c" stop-opacity="0"/><stop offset="1" stop-color="#519b4c"/></linearGradient><linearGradient id="linear-gradient-2" x1="154.35" y1="240.23" x2="154.88" y2="305.88" xlink:href="#linear-gradient"/><linearGradient id="linear-gradient-3" x1="216.31" y1="149.2" x2="243.53" y2="370.17" xlink:href="#linear-gradient"/><linearGradient id="linear-gradient-4" x1="276.39" y1="91.48" x2="132.95" y2="215.82" gradientUnits="userSpaceOnUse"><stop offset="0" stop-color="#3f843f"/><stop offset="1" stop-color="#519b4c"/></linearGradient><linearGradient id="linear-gradient-5" x1="213.04" y1="194.86" x2="213.04" y2="136.19" gradientUnits="userSpaceOnUse"><stop offset="0" stop-color="#e5e3e3"/><stop offset="1" stop-color="#e5e3e3" stop-opacity="0"/></linearGradient><linearGradient id="linear-gradient-6" x1="203.91" y1="245.41" x2="200.7" y2="303.06" xlink:href="#linear-gradient"/><linearGradient id="linear-gradient-7" x1="157.76" y1="180.45" x2="156.41" y2="246.63" xlink:href="#linear-gradient-4"/><linearGradient id="linear-gradient-8" x1="45.37" y1="146.39" x2="157.15" y2="146.39" xlink:href="#linear-gradient-4"/><linearGradient id="linear-gradient-9" x1="101.26" y1="194.86" x2="101.26" y2="136.19" xlink:href="#linear-gradient-5"/><linearGradient id="linear-gradient-10" x1="159.36" y1="146.96" x2="159.36" y2="186.86" gradientTransform="matrix(1.01, 0, 0, 1.07, -3.15, 22.63)" gradientUnits="userSpaceOnUse"><stop offset="0" stop-color="#f9ec31"/><stop offset="0.21" stop-color="#f9de2e"/><stop offset="0.61" stop-color="#f7bb27"/><stop offset="1" stop-color="#f6921e"/></linearGradient><linearGradient id="linear-gradient-11" x1="188.33" y1="218.68" x2="154.64" y2="191.48" gradientTransform="matrix(1, 0, 0, 1, 0, 0)" xlink:href="#linear-gradient-10"/><linearGradient id="linear-gradient-13" x1="94.73" y1="77.99" x2="94.73" y2="36.87" gradientUnits="userSpaceOnUse"><stop offset="0.2" stop-color="#fff" stop-opacity="0"/><stop offset="0.97" stop-color="#fff"/></linearGradient><linearGradient id="linear-gradient-14" x1="1007.89" y1="79.05" x2="1007.89" y2="37.93" gradientTransform="matrix(-1, 0, 0, 1, 1226.44, 0)" xlink:href="#linear-gradient-13"/><linearGradient id="linear-gradient-15" x1="157.77" y1="176.39" x2="156.8" y2="224.02" gradientTransform="matrix(1, 0, 0, 1, 0, 0)" xlink:href="#linear-gradient-10"/><linearGradient id="linear-gradient-16" x1="181.07" y1="181.8" x2="139.41" y2="196.29" gradientUnits="userSpaceOnUse"><stop offset="0" stop-color="#f9ec31" stop-opacity="0"/><stop offset="0.09" stop-color="#f9e730" stop-opacity="0.06"/><stop offset="0.27" stop-color="#f8da2d" stop-opacity="0.2"/><stop offset="0.51" stop-color="#f8c529" stop-opacity="0.44"/><stop offset="0.8" stop-color="#f7a823" stop-opacity="0.76"/><stop offset="1" stop-color="#f6921e"/></linearGradient><linearGradient id="linear-gradient-17" x1="164.05" y1="218.12" x2="156.01" y2="159.51" xlink:href="#linear-gradient-13"/></defs><title>Asset 7</title><g class="cls-1"><g id="Layer_2" data-name="Layer 2"><g id="Layer_1-2" data-name="Layer 1"><path class="cls-2" d="M886,105.7h14.88v72.09h-1A13.84,13.84,0,0,1,886,164Zm-125.5,73.35q-14.26,3-27.94-4.62a36.78,36.78,0,0,1-17.81-22.08c-6-19.71,6.32-41.67,26.17-47a36.52,36.52,0,0,1,28.24,3.58c14.89,8.31,20.31,21.19,19.37,37.78l-60-.13c.88,6.77,5.08,12.06,11,15.36s11.47,4.13,16.58,2.55c5.65-1.78,10.25-6.39,14-10.7l12.23,8.91C777.29,171.63,770.5,176.91,760.46,179.05Zm11.35-45.93c-1.88-5.82-4.24-8.68-9.67-11.7-12.89-7.21-25.58-1.08-31.49,11.65Zm203.75,4.22a16.93,16.93,0,0,0-6.68-14c-4-3.16-9-4.77-15.14-4.77-13.47,0-22.11,10.53-22.11,23.51,0,12.5,9.15,22.93,22,22.93,8.91,0,13.68-5.21,18.76-11.69V172a41.07,41.07,0,0,1-8.61,5.29,29.66,29.66,0,0,1-11.46,2c-21.42,0-35.55-17.75-35.55-38.26,0-10.53,3.27-19.23,9.85-26,7-7.19,16.15-10.76,27.37-10.76,21.27,0,36.49,12.21,36.49,34.28v39.28h-1A13.84,13.84,0,0,1,975.56,164ZM899.94,97.15a8.37,8.37,0,0,1-6.54,2.56,8.53,8.53,0,0,1-8.76-8.84c0-5.19,3.59-8.7,8.76-8.7a8.53,8.53,0,0,1,8.77,8.7A9.1,9.1,0,0,1,899.94,97.15Zm-42,71.13c-6.83,7.33-15.62,11-26.29,11-11.25,0-20.42-3.89-27.39-11.68-6.57-7.37-9.83-16.6-9.83-27.61,0-19.47,15-35.75,34.81-35.75a41.82,41.82,0,0,1,21,5.28v16.12c-5.37-3.64-12.11-7.1-18.76-7.1-13.86,0-22.12,9.54-22.12,23.07C809.29,155,818,165,831.7,165a19.51,19.51,0,0,0,15.37-7c4-4.64,6.16-11.47,6.16-20.63V87.19a13.84,13.84,0,0,1,13.84-13.84h1v66.34C868.11,151.37,864.73,160.93,857.91,168.28Zm-161.16.53a33.37,33.37,0,0,1-24.57,10.46,39.61,39.61,0,0,1-20.9-5.45V157.87c5.37,3.63,12.11,7.1,18.76,7.1,13.87,0,22.13-9.55,22.13-23.07s-8.55-23.37-22.42-23.37a19.2,19.2,0,0,0-15.15,6.69c-4.2,4.84-6.38,11.75-6.38,20.89v63h-1a13.84,13.84,0,0,1-13.84-13.84V143.75c0-21.86,13.37-39.52,36.35-39.52,11.33,0,20.55,3.88,27.54,11.67,6.56,7.28,9.82,16.51,9.82,27.61A34.74,34.74,0,0,1,696.75,168.81Z"/><path class="cls-2" d="M456.83,125a20.78,20.78,0,0,0-15.72-6.44c-13.7,0-21.89,10-21.89,23.22,0,13.05,8.39,23.22,21.89,23.22S463,154.8,463,141.75C463,134.82,460.93,129.26,456.83,125Zm146.42,0a20.77,20.77,0,0,0-15.72-6.44c-13.69,0-21.89,10-21.89,23.22,0,13.05,8.39,23.22,21.89,23.22s21.9-10.17,21.9-23.22C609.43,134.82,607.35,129.26,603.25,125ZM614,168.68a38.16,38.16,0,0,1-52.77,0c-7.38-7.07-11.05-16.08-11.05-26.93,0-21.17,16.16-37.52,37.36-37.52a36.89,36.89,0,0,1,26.39,10.66c7.42,7.12,11.13,16.1,11.13,26.86S621.37,161.61,614,168.68Zm-76.83-45.63c-2.18,3.66-3.88,6.29-5.07,7.87A20.32,20.32,0,0,1,528.2,135c10.34,3.34,14.2,10.51,14.2,21.18v21.63h-1A13.83,13.83,0,0,1,527.51,164v-6.33c0-6.91-3.1-11.6-10.42-11.6H503.57v31.76h-1.05A13.84,13.84,0,0,1,488.68,164V87.19a13.84,13.84,0,0,1,13.84-13.84h1.05v58.23H508c4.83,0,8-1.65,9.83-4.77l12.51-21.1,17,0Zm-69.59,45.63a38.16,38.16,0,0,1-52.77,0c-7.38-7.07-11.06-16.08-11.06-26.93,0-21.17,16.17-37.52,37.37-37.52a36.89,36.89,0,0,1,26.39,10.66c7.42,7.12,11.13,16.1,11.13,26.86S475,161.61,467.57,168.68Zm-86.44,9.11c-14.55,0-21.78-9.9-21.78-23.73V101.6a13.84,13.84,0,0,1,13.84-13.84h1V105.7h25.15V120H374.23v35.72c0,6.07,2.72,7.78,8.52,7.78h16.63v14.29Z"/><ellipse class="cls-3" cx="151.38" cy="265.16" rx="151.38" ry="31.31"/><path class="cls-4" d="M220.15,56.49a63.37,63.37,0,0,0-126-.16l-.69,7.32,19.66,1.2.37-7.26c3-22.85,20-38.17,43.72-38.21S198.43,34.88,201,58l1.22,9.77,19.12-1.36Z"/><path class="cls-5" d="M42.13,53.53a7.76,7.76,0,0,0-7.69,7.78l.21,113.33,0,20.26v5.41l.14,70a7.77,7.77,0,0,0,7.79,7.76l70-.13,12.22,0,77.6-.14a78,78,0,0,0,77.65-78v-5.41l-.25-127.21a14.16,14.16,0,0,0-14.11-14.14c-14.26,0-28.85-.08-43,.75l-17.64,1.55c-15.75,1.95-31.66,5.5-44.36,11.92a7.84,7.84,0,0,1-7.15,0C140.26,60.36,125.77,56.77,109.26,55L91.61,53.65C75.06,52.91,58.14,53.36,42.13,53.53Z"/><path class="cls-6" d="M49.94,53.43A15.7,15.7,0,0,0,34.45,69.17l.2,105.47,0,20.26v5.41l.14,69.9a7.89,7.89,0,0,0,7.91,7.88l69.88-.13,12.22,0,77.6-.14a78,78,0,0,0,77.65-78v-5.41l-.25-127.08a14.28,14.28,0,0,0-14.23-14.27c-14.22,0-28.77-.08-42.88.75l-17.64,1.55c-15.72,1.95-31.61,5.49-44.31,11.9a8,8,0,0,1-7.25,0c-13.31-6.91-27.78-10.49-44.27-12.3L91.61,53.65C77.73,53,63.59,53.25,49.94,53.43Z"/><path class="cls-7" d="M56.85,278.06l55.78-.1,12.22,0,77.6-.14a77.37,77.37,0,0,0,49.86-18.34A103.19,103.19,0,0,0,56.85,278.06"/><path class="cls-8" d="M56.85,278.06l55.78-.1,12.22,0,77.6-.14a77.37,77.37,0,0,0,49.86-18.34A103.19,103.19,0,0,0,56.85,278.06"/><path class="cls-9" d="M157.55,277.87l45.8-.76a76.75,76.75,0,0,0,76.75-77.27v-5.41l-.26-135a6.38,6.38,0,0,0-6.37-6.37c-16.68,0-34-.26-50.73.72l-17.64,1.55c-17.26,2.14-34.72,6.2-47.94,13.86Z"/><path class="cls-10" d="M157.55,277.87l45.8-.76a76.75,76.75,0,0,0,76.75-77.27v-5.41l-.26-135a6.38,6.38,0,0,0-6.37-6.37c-16.68,0-34-.26-50.73.72l-17.64,1.55c-17.26,2.14-34.72,6.2-47.94,13.86Z"/><path class="cls-11" d="M212.93,90.5a55.89,55.89,0,1,1-55.78,56,55.91,55.91,0,0,1,55.78-56"/><path class="cls-12" d="M213,97.85a48.55,48.55,0,1,1-48.46,48.64A48.55,48.55,0,0,1,213,97.85"/><path class="cls-13" d="M259.93,133.07a48.85,48.85,0,0,1-93.84.21,48.84,48.84,0,1,0,93.84-.21Z"/><path class="cls-14" d="M207.47,114.94a32.12,32.12,0,1,1-26,18.63,15.48,15.48,0,1,0,24.37-18.43c.53-.09,1.08-.14,1.61-.2"/><path class="cls-5" d="M157.55,277.87l45.18-.08a76.66,76.66,0,0,0,49.59-18.33c-15.7-36.28-53-61.74-94.93-62.22Z"/><path class="cls-15" d="M157.55,277.87l45.18-.08a76.66,76.66,0,0,0,49.59-18.33c-15.7-36.28-53-61.74-94.93-62.22Z"/><path class="cls-16" d="M186.91,194.58c-5.14-19.14-24.08-20.86-29.21-21.15a4.87,4.87,0,0,0-1.18,0c-5,.49-24,2.46-28.62,22a26.66,26.66,0,0,0,0,3.1l0,.07s1.63,1.08,4.12,2.66c3.29,9.11,19.08,26.33,25.52,26.34l.59,0c5.33,0,19.73-15.55,24-25.63,2.57-1.66,4.38-2.91,4.74-3.25A15,15,0,0,0,186.91,194.58Z"/><path class="cls-17" d="M101.15,90.5a55.89,55.89,0,1,1-55.78,56,55.91,55.91,0,0,1,55.78-56"/><path class="cls-12" d="M101.16,97.85a48.55,48.55,0,1,1-48.45,48.64,48.56,48.56,0,0,1,48.45-48.64"/><path class="cls-18" d="M148.15,133.07a48.85,48.85,0,0,1-93.84.21,48.84,48.84,0,1,0,93.84-.21Z"/><path class="cls-14" d="M106.45,114.78a32.15,32.15,0,1,1-27.7,15.95,15.48,15.48,0,1,0,26.08-15.92c.54,0,1.09,0,1.62,0"/><path class="cls-19" d="M158.13,223.15c6.46,0,26.22-21.82,25.1-29.75-4.55-17.17-21.08-19.32-25.61-19.59a4.93,4.93,0,0,0-1,0c-4.36.44-21.05,3.22-25.11,20.71-1.33,6.6,18.63,28.63,26.07,28.64Z"/><path class="cls-20" d="M179.2,203.83c2.69-4.11,4.38-8,4-10.43a24.51,24.51,0,0,0-9.74-14.28,39,39,0,0,0-15.79-4.33,5.84,5.84,0,0,0-1.18,0,39.49,39.49,0,0,0-15.64,4.95,24.94,24.94,0,0,0-9.41,14.77c-.38,1.88,1,5,3.26,8.52,7.42,4.4,18.75,10.72,22.69,10.72S171.9,208.16,179.2,203.83Z"/><path class="cls-21" d="M179.2,203.83c2.69-4.11,4.38-8,4-10.43a24.51,24.51,0,0,0-9.74-14.28,39,39,0,0,0-15.79-4.33,5.84,5.84,0,0,0-1.18,0,39.49,39.49,0,0,0-15.64,4.95,24.94,24.94,0,0,0-9.41,14.77c-.38,1.88,1,5,3.26,8.52,7.42,4.4,18.75,10.72,22.69,10.72S171.9,208.16,179.2,203.83Z"/><path class="cls-22" d="M151.91,71.9c-13.33-7.67-27.86-11.47-44.64-13.31L90.83,57.37c-15.42-.69-31.17-.27-46.09-.12a7.28,7.28,0,0,0-7.2,7.29C89.23,55.36,151.91,71.9,151.91,71.9Z"/><path class="cls-23" d="M161.37,71.9C174.7,64.23,189.23,60.43,206,58.59l16.44-1.22c15.42-.69,31.17-.27,46.09-.12a7.28,7.28,0,0,1,7.2,7.29C224.05,55.36,161.37,71.9,161.37,71.9Z"/><path class="cls-24" d="M186.73,192.2c-5.15-18.32-23.9-20.59-29-20.87a5.84,5.84,0,0,0-1.18,0c-5,.46-23.88,3.46-28.51,22.14a9.48,9.48,0,0,0-.14,1.86l0,.07s23.48,14.89,29.52,14.89c6.3,0,28.05-13.59,29.41-14.8A9.6,9.6,0,0,0,186.73,192.2Z"/><path class="cls-25" d="M128,193.49a9.48,9.48,0,0,0-.14,1.86l0,.07s22.82,14.47,29.25,14.87c1.77-36-.63-38.94-.63-38.94C151.57,171.81,132.64,174.81,128,193.49Z"/><path class="cls-26" d="M163.57,172.11a40.64,40.64,0,0,0-5.87-.78,5.84,5.84,0,0,0-1.18,0s2.4,3,.63,38.94C160.17,202.21,162.5,182.49,163.57,172.11Z"/><path class="cls-12" d="M155.78,171.43h0Z"/></g></g></g></svg>