<svg id="Layer_1" data-name="Layer 1" xmlns="http://www.w3.org/2000/svg" xmlns:xlink="http://www.w3.org/1999/xlink" viewBox="0 0 45 45"><defs><style>.cls-1{fill:none;}.cls-2{fill:#f4f4f4;}.cls-3{clip-path:url(#clip-path);}</style><clipPath id="clip-path"><circle class="cls-1" cx="22.5" cy="22.5" r="22.5"/></clipPath></defs><title>origintypes</title><circle class="cls-2" cx="22.5" cy="22.5" r="22.5"/><g class="cls-3"><path d="M1.3,22.83a2.12,2.12,0,0,1,.52-1.49,1.76,1.76,0,0,1,1.36-.57,1.76,1.76,0,0,1,1.36.57,2.16,2.16,0,0,1,.51,1.49,2.09,2.09,0,0,1-.52,1.48,1.74,1.74,0,0,1-1.35.57,1.76,1.76,0,0,1-1.36-.57A2.09,2.09,0,0,1,1.3,22.83Zm.86,0a2.7,2.7,0,0,0,.24,1.3.83.83,0,0,0,.77.41A.87.87,0,0,0,4,24.13a2.65,2.65,0,0,0,.24-1.3A2.69,2.69,0,0,0,4,21.52a.86.86,0,0,0-.78-.41.84.84,0,0,0-.78.41A2.69,2.69,0,0,0,2.16,22.83Z"/><path d="M7,24.07a.44.44,0,0,0,0,.25.37.37,0,0,0,.23.06l.51,0v.35H5.58V24.4l.39,0a.37.37,0,0,0,.23-.06.44.44,0,0,0,0-.25V21.55a.3.3,0,0,0-.09-.26.83.83,0,0,0-.41-.06H5.5V20.9L7,20.8V22a2.26,2.26,0,0,1,.5-.89,1,1,0,0,1,.72-.3.79.79,0,0,1,.55.2.66.66,0,0,1,.21.5.51.51,0,0,1-.13.37.48.48,0,0,1-.8-.53.44.44,0,0,1,.12-.15H8.08c-.29,0-.54.19-.76.58A3,3,0,0,0,7,23.19Z"/><path d="M9.28,24.75V24.4l.4,0a.31.31,0,0,0,.23-.07.33.33,0,0,0,.06-.24V21.55a.3.3,0,0,0-.09-.26.62.62,0,0,0-.37-.07H9.27V20.9l1.46-.1v3.27a.33.33,0,0,0,.06.24.31.31,0,0,0,.23.07l.37,0v.35Zm1.05-6a.49.49,0,0,1,.35.15.45.45,0,0,1,.15.34.48.48,0,0,1-.5.49.48.48,0,0,1-.49-.49.45.45,0,0,1,.14-.34A.47.47,0,0,1,10.33,18.74Z"/><path d="M12.79,23.24a1.12,1.12,0,0,1-.53-.44,1.27,1.27,0,0,1-.18-.69,1.2,1.2,0,0,1,.45-1,1.71,1.71,0,0,1,1.15-.37,2.1,2.1,0,0,1,.59.08,1.35,1.35,0,0,1,.48.24l.12-.11a2,2,0,0,1,.4-.26.74.74,0,0,1,.35-.08.5.5,0,0,1,.38.13.56.56,0,0,1,.13.38.35.35,0,0,1-.11.26.41.41,0,0,1-.27.1.35.35,0,0,1-.35-.23.9.9,0,0,0-.11-.22l0,0-.09.07-.18.13a1.33,1.33,0,0,1,.23.37,1.53,1.53,0,0,1,.07.46,1.15,1.15,0,0,1-.49,1,2.15,2.15,0,0,1-1.34.37,2.28,2.28,0,0,0-.74.08.29.29,0,0,0-.19.29.26.26,0,0,0,.14.24,1,1,0,0,0,.47.07h.07l.68,0h.44a1.65,1.65,0,0,1,1,.24.93.93,0,0,1,.32.78,1.09,1.09,0,0,1-.56,1,3.12,3.12,0,0,1-1.59.33,3,3,0,0,1-1.28-.22.71.71,0,0,1-.45-.64.64.64,0,0,1,.22-.49,1.32,1.32,0,0,1,.63-.29.94.94,0,0,1-.5-.26.68.68,0,0,1-.16-.48.78.78,0,0,1,.22-.55A1.13,1.13,0,0,1,12.79,23.24Zm.34,1.59a.88.88,0,0,0-.49.24.61.61,0,0,0-.18.45.49.49,0,0,0,.28.44,1.71,1.71,0,0,0,.81.15,2.72,2.72,0,0,0,1.14-.18.58.58,0,0,0,.37-.55.46.46,0,0,0-.2-.42,1.33,1.33,0,0,0-.69-.13Zm-.31-2.69a1.21,1.21,0,0,0,.21.78.77.77,0,0,0,.64.25.8.8,0,0,0,.66-.25,1.28,1.28,0,0,0,.2-.78,1.19,1.19,0,0,0-.21-.78.92.92,0,0,0-1.28,0A1.14,1.14,0,0,0,12.82,22.14Z"/><path d="M16.34,24.75V24.4l.4,0a.31.31,0,0,0,.23-.07.33.33,0,0,0,.06-.24V21.55a.3.3,0,0,0-.09-.26.62.62,0,0,0-.37-.07h-.24V20.9l1.47-.1v3.27c0,.12,0,.21.05.24a.33.33,0,0,0,.23.07l.37,0v.35Zm1.05-6a.47.47,0,0,1,.35.15.45.45,0,0,1,.15.34.48.48,0,0,1-.5.49.47.47,0,0,1-.35-.14.46.46,0,0,1-.14-.35.45.45,0,0,1,.14-.34A.49.49,0,0,1,17.39,18.74Z"/><path d="M18.93,24.75V24.4l.36,0a.37.37,0,0,0,.23-.06.44.44,0,0,0,.05-.25V21.55a.3.3,0,0,0-.09-.26.65.65,0,0,0-.37-.07h-.25V20.9l1.43-.1v.8a1.92,1.92,0,0,1,.61-.6,1.46,1.46,0,0,1,.76-.2,1.25,1.25,0,0,1,.94.35,1.37,1.37,0,0,1,.33,1v1.94a.4.4,0,0,0,.05.24.31.31,0,0,0,.23.07l.35,0v.35h-2V24.4l.35,0a.31.31,0,0,0,.23-.07.43.43,0,0,0,.05-.24v-2a.77.77,0,0,0-.2-.58.74.74,0,0,0-.57-.2.93.93,0,0,0-.8.35,1.67,1.67,0,0,0-.27,1v1.37a.44.44,0,0,0,.05.25.4.4,0,0,0,.23.06l.35,0v.35Z"/><path d="M24.55,21.27h-.67v-.33a1,1,0,0,0,.81-.48A2.45,2.45,0,0,0,25,19.22h.35V20.9h1.21v.37H25.31v2.4a.91.91,0,0,0,.12.55.44.44,0,0,0,.38.15.55.55,0,0,0,.5-.27,1.67,1.67,0,0,0,.19-.85h.31v.11a1.72,1.72,0,0,1-.33,1.14,1.2,1.2,0,0,1-1,.4.92.92,0,0,1-.74-.26,1.33,1.33,0,0,1-.22-.89Z"/><path d="M29,24.64l-1.33-3a.55.55,0,0,0-.1-.17.24.24,0,0,0-.1-.1.54.54,0,0,0-.17-.07l-.28,0V20.9h2v.35h-.21a.53.53,0,0,0-.27,0s-.07.07-.07.14a.41.41,0,0,0,0,.07.94.94,0,0,0,.07.19l.88,2,.84-2v0a.5.5,0,0,0,0-.16.21.21,0,0,0-.11-.21,1.34,1.34,0,0,0-.47-.07V20.9H31.3v.35a.62.62,0,0,0-.37.11.79.79,0,0,0-.26.34L29.26,25a3.41,3.41,0,0,1-.73,1.16,1.25,1.25,0,0,1-.89.35.81.81,0,0,1-.57-.17.57.57,0,0,1-.21-.47.47.47,0,0,1,.15-.35.49.49,0,0,1,.36-.14.43.43,0,0,1,.31.11.41.41,0,0,1,.12.3.41.41,0,0,1,0,.16.48.48,0,0,1,0,.08.1.1,0,0,0,0,.07.22.22,0,0,0,.12,0c.14,0,.31-.11.5-.35a3.49,3.49,0,0,0,.54-.95Z"/><path d="M33,21.52a1.71,1.71,0,0,1,.54-.56,1.29,1.29,0,0,1,.7-.19,1.51,1.51,0,0,1,1.2.57,2.21,2.21,0,0,1,.48,1.46,2.29,2.29,0,0,1-.48,1.5,1.58,1.58,0,0,1-1.88.45,1.66,1.66,0,0,1-.51-.46v1.52c0,.12,0,.2.06.23s.11.06.23.07h.35v.35h-2v-.35H32a.23.23,0,0,0,.28-.3v-4.2a.39.39,0,0,0-.08-.28.55.55,0,0,0-.34-.07h-.21v-.36l1.35-.1Zm2.06,1.33a2.43,2.43,0,0,0-.23-1.21.79.79,0,0,0-.73-.39.89.89,0,0,0-.8.38,2.32,2.32,0,0,0-.25,1.22,2.34,2.34,0,0,0,.24,1.21,1,1,0,0,0,1.53,0A2.35,2.35,0,0,0,35.08,22.85Z"/><path d="M37.34,22.89V23a.54.54,0,0,1,0,.08,1.59,1.59,0,0,0,.31,1,1,1,0,0,0,.81.37,1.42,1.42,0,0,0,.77-.22,1.75,1.75,0,0,0,.56-.68l.3.17a2.21,2.21,0,0,1-.72.88,1.92,1.92,0,0,1-1,.29A1.65,1.65,0,0,1,37,24.31a2.13,2.13,0,0,1-.51-1.48A2.16,2.16,0,0,1,37,21.34a1.81,1.81,0,0,1,2.6,0,2.05,2.05,0,0,1,.48,1.44v.15Zm0-.36h1.55c.12,0,.2,0,.23-.06a.27.27,0,0,0,.06-.2A1.37,1.37,0,0,0,39,21.4a.77.77,0,0,0-.65-.3.81.81,0,0,0-.72.36A2,2,0,0,0,37.36,22.53Z"/><path d="M40.68,23.23H41a1.84,1.84,0,0,0,.51,1,1.17,1.17,0,0,0,.86.34,1,1,0,0,0,.64-.19.59.59,0,0,0,.24-.5.47.47,0,0,0-.16-.39,1.78,1.78,0,0,0-.72-.25A3,3,0,0,1,41,22.71a1,1,0,0,1-.3-.81,1.11,1.11,0,0,1,.32-.82,1.21,1.21,0,0,1,.85-.3,1.93,1.93,0,0,1,.57.07,1.57,1.57,0,0,1,.48.25l.25-.29h.26v1.38H43.2a1.78,1.78,0,0,0-.49-.81A1.08,1.08,0,0,0,42,21.1a.92.92,0,0,0-.55.16.51.51,0,0,0-.21.41c0,.32.33.55,1,.68h0a2.71,2.71,0,0,1,1.2.45,1,1,0,0,1,.31.8,1.23,1.23,0,0,1-.38.95,1.45,1.45,0,0,1-1,.35,1.7,1.7,0,0,1-.57-.1,1.93,1.93,0,0,1-.53-.31l-.28.38h-.28Z"/><rect x="0.03" y="28.89" width="22.48" height="0.56"/><rect x="22.52" y="15.54" width="22.48" height="0.56"/></g></svg>